<?xml version="1.0" encoding="UTF-8"?>
<svg id="_" data-name="ͼ" xmlns="http://www.w3.org/2000/svg" xmlns:xlink="http://www.w3.org/1999/xlink" viewBox="0 0 306.17 163.61">
  <defs>
    <style>
      .cls-1 {
        fill: url(#GradientFill_1);
      }

      .cls-1, .cls-2, .cls-3, .cls-4, .cls-5 {
        fill-rule: evenodd;
        stroke-width: 0px;
      }

      .cls-2 {
        fill: #005dad;
      }

      .cls-3 {
        fill: #95c51b;
      }

      .cls-4 {
        fill: #7e7e7f;
      }

      .cls-5 {
        fill: url(#GradientFill_1-2);
      }
    </style>
    <linearGradient id="GradientFill_1" data-name="GradientFill 1" x1="-43.46" y1="9.06" x2="289.6" y2="33.16" gradientUnits="userSpaceOnUse">
      <stop offset="0" stop-color="#03a8a6"/>
      <stop offset="1" stop-color="#b1d79e"/>
    </linearGradient>
    <linearGradient id="GradientFill_1-2" data-name="GradientFill 1" x1="-53.01" y1="116.96" x2="280.05" y2="141.06" xlink:href="#GradientFill_1"/>
  </defs>
  <polygon class="cls-2" points="15.97 104.13 .65 104.13 8.08 51.34 23.4 51.34 20.67 70.84 32.35 70.84 35.08 51.34 50.4 51.34 43.05 104.13 27.73 104.13 30.61 82.82 19.01 82.82 15.97 104.13"/>
  <polygon class="cls-2" points="50.22 104.13 51.74 92.68 77.07 63.18 58.11 63.18 59.7 51.34 96.48 51.34 94.89 62.95 69.94 91.92 91.48 91.92 88.29 104.13 50.22 104.13"/>
  <path class="cls-2" d="M121.94,49.83c7.79,0,14.06,2.43,18.81,7.28l-7.74,7.96c-3.08-2.78-6.57-4.17-10.47-4.17-2.02,0-3.58.39-4.66,1.18-1.09.78-1.63,1.81-1.63,3.07,0,.86.24,1.57.72,2.12.48.56,1.29,1.09,2.43,1.59,1.14.51,2.84,1.14,5.12,1.9,4.6,1.57,7.98,3.58,10.12,6.03,2.15,2.45,3.22,5.55,3.22,9.29,0,3.34-.78,6.48-2.35,9.44-1.57,2.96-4.12,5.38-7.66,7.28-3.54,1.9-8.09,2.84-13.65,2.84-4.5,0-8.44-.75-11.83-2.24-3.39-1.49-6.24-3.43-8.57-5.8l8.57-8.72c3.39,3.39,7.46,5.08,12.21,5.08,2.28,0,4.02-.43,5.23-1.29,1.21-.86,1.82-2.1,1.82-3.72,0-1.42-.54-2.6-1.63-3.56-1.09-.96-3.02-1.92-5.8-2.88-5.06-1.67-8.67-3.75-10.85-6.26-2.17-2.5-3.26-5.5-3.26-8.99,0-3.08.78-5.94,2.35-8.57,1.57-2.63,3.99-4.77,7.28-6.41,3.29-1.64,7.36-2.46,12.21-2.46Z"/>
  <polygon class="cls-3" points="155.6 104.13 145.29 75.99 162.96 51.34 178.89 51.34 160.84 75.54 172.9 104.13 155.6 104.13"/>
  <path class="cls-2" d="M214.09,76.22c3.13.61,5.64,1.74,7.51,3.41,1.87,1.67,2.81,4.25,2.81,7.74,0,5.06-2.03,9.11-6.1,12.17-4.07,3.06-10.71,4.59-19.91,4.59h-18.2l7.36-52.78h16c7.13,0,12.58.94,16.34,2.81,3.77,1.87,5.65,5.01,5.65,9.4,0,3.54-1.09,6.32-3.26,8.34-2.17,2.02-4.9,3.46-8.19,4.32h0ZM202.56,71.75c2.88,0,4.79-.59,5.73-1.78.94-1.19,1.4-2.67,1.4-4.44,0-1.21-.47-2.1-1.4-2.65-.94-.56-2.49-.83-4.66-.83h-2.35l-1.36,9.71h2.65ZM199.9,93.13c3.39,0,5.7-.62,6.94-1.86,1.24-1.24,1.86-3,1.86-5.27,0-2.93-2.15-4.4-6.45-4.4h-3.72l-1.59,11.53h2.96Z"/>
  <polygon class="cls-2" points="253.99 51.34 246.63 104.13 231.31 104.13 238.67 51.34 253.99 51.34"/>
  <path class="cls-2" d="M285.24,49.83c6.77,0,11.96,1.91,15.55,5.73,3.59,3.82,5.38,9.16,5.38,16.04,0,5.41-.91,10.69-2.73,15.85-1.82,5.16-4.85,9.48-9.1,12.97-4.25,3.49-9.78,5.23-16.61,5.23s-11.89-1.92-15.51-5.76c-3.61-3.84-5.42-9.2-5.42-16.08,0-5.41.91-10.69,2.73-15.85,1.82-5.16,4.87-9.47,9.14-12.93,4.27-3.46,9.8-5.2,16.57-5.2h0ZM284.03,60.9c-2.98,0-5.32,1.39-7.02,4.17-1.69,2.78-2.86,6-3.49,9.67-.63,3.67-.95,7.12-.95,10.35s.52,5.81,1.55,7.28c1.04,1.47,2.64,2.2,4.82,2.2,2.98,0,5.32-1.38,7.02-4.13,1.69-2.76,2.86-5.98,3.49-9.67.63-3.69.95-7.2.95-10.54s-.52-5.73-1.55-7.17c-1.04-1.44-2.64-2.16-4.82-2.16Z"/>
  <path class="cls-4" d="M2.34,115.08c.41.2.84.41,1.29.64.45.23.88.48,1.29.75.41.26.79.53,1.16.8.36.27.67.54.92.79l-1.14,1.52c-.23-.25-.53-.52-.89-.8-.36-.28-.75-.57-1.16-.85-.41-.28-.83-.56-1.27-.82-.44-.26-.86-.49-1.27-.69l1.08-1.35h0ZM9.01,137.48h6.61v-9.36h-3.13v-5.44h4.01v-1.78h-4.01v-5.44h-1.78v5.44h-4.47v1.78h4.47v5.44h-3.42v11.73h1.73v-2.37h0ZM19.33,131.63c-.08.88-.2,1.75-.37,2.63-.17.88-.39,1.74-.69,2.59s-.65,1.66-1.08,2.43-.96,1.49-1.58,2.15c-.14-.16-.36-.35-.66-.57-.3-.22-.56-.38-.77-.48.82-.88,1.46-1.83,1.93-2.87.47-1.03.82-2.11,1.07-3.22.24-1.11.4-2.23.47-3.35.07-1.12.1-2.19.1-3.2v-11.87h7.95v23.05c0,.53-.07.93-.22,1.21-.15.28-.39.5-.75.66-.37.16-.85.25-1.45.29-.59.04-1.39.05-2.38.03-.04-.21-.12-.49-.23-.82-.12-.33-.24-.61-.38-.85.72.04,1.36.06,1.93.06s.95,0,1.14-.03c.21-.02.36-.07.44-.15.08-.08.12-.22.12-.44v-7.25h-4.59ZM19.51,122.8h4.42v-5.18h-4.42v5.18h0ZM1.02,122.92c.45.18.9.37,1.36.59.46.21.91.44,1.35.69.44.24.85.49,1.23.75.38.25.7.5.95.73l-1.08,1.55c-.25-.23-.57-.48-.95-.75-.38-.26-.78-.52-1.21-.78-.43-.25-.87-.5-1.33-.75-.46-.24-.9-.45-1.33-.63l1.02-1.4h0ZM19.51,127.74v1.04c0,.36-.02.73-.06,1.1h4.47v-5.29h-4.42v3.16h0ZM9.01,135.76v-5.91h4.88v5.91h-4.88ZM6.2,131.78c-.27.76-.57,1.55-.89,2.35-.32.81-.65,1.62-.98,2.43-.33.81-.67,1.59-1.01,2.35-.34.76-.68,1.47-1.01,2.14l-1.73-1.05c.29-.57.61-1.21.97-1.94.35-.73.71-1.51,1.07-2.33.36-.82.72-1.66,1.07-2.52s.67-1.7.97-2.52l1.55,1.08h0ZM68.75,115.14v25.88h-1.93v-25.88h1.93ZM51.67,124.23c0,1.48-.06,2.98-.18,4.5-.12,1.52-.37,3.01-.76,4.47-.39,1.46-.96,2.88-1.71,4.26-.75,1.37-1.77,2.67-3.06,3.88-.16-.23-.38-.49-.67-.78-.29-.28-.55-.51-.76-.69,1.19-1.11,2.13-2.3,2.82-3.55.69-1.26,1.22-2.56,1.58-3.9.36-1.35.59-2.71.69-4.09.1-1.38.15-2.75.15-4.09v-8.98h1.9v8.98h0ZM60.01,115.9v23.45h-1.9v-23.45h1.9ZM48.22,122.42l-1.64-.5c-.12.62-.27,1.28-.45,1.97-.19.69-.39,1.37-.63,2.05-.23.67-.5,1.32-.79,1.93-.29.61-.61,1.17-.97,1.68l1.67.73c.33-.51.64-1.08.92-1.73.28-.64.54-1.32.77-2.02.23-.7.44-1.41.63-2.12.19-.71.35-1.38.48-2h0ZM62.38,122.13c.35.57.7,1.16,1.04,1.8.34.63.66,1.27.97,1.9.3.63.57,1.24.8,1.83.23.59.42,1.11.56,1.58l-1.64.88c-.14-.47-.32-1-.54-1.61-.22-.6-.48-1.23-.76-1.87-.28-.64-.59-1.29-.92-1.94-.33-.65-.67-1.26-1.02-1.83l1.52-.73h0ZM54.25,122.42c.25.59.5,1.2.75,1.84.24.64.47,1.29.67,1.93.2.64.39,1.26.54,1.84.16.59.27,1.11.35,1.58l-1.7.7c-.06-.47-.16-1-.31-1.61-.15-.6-.32-1.23-.53-1.87-.2-.64-.42-1.3-.66-1.96-.23-.66-.48-1.29-.73-1.87l1.61-.59h0ZM102.35,133.27v8.04h-2.02v-8.04h-8.19v1.73h-1.93v-16.41h10.12v-3.86h2.02v3.86h10.41v16.23h-1.99v-1.55h-8.42ZM92.14,124.94h8.19v-4.47h-8.19v4.47h0ZM102.35,124.94h8.42v-4.47h-8.42v4.47h0ZM102.35,131.43h8.42v-4.68h-8.42v4.68h0ZM92.14,131.43h8.19v-4.68h-8.19v4.68h0ZM155.11,133.65v7.66h-1.9v-7.37l-9.68,1.55-.32-1.78,10-1.61v-17.37h1.9v17.08l3.51-.59.29,1.78-3.8.64h0ZM142.06,132.04l1.2-1.52c-.16-.21-.42-.56-.79-1.04-.37-.48-.76-.98-1.18-1.52-.42-.54-.82-1.05-1.21-1.54-.39-.49-.7-.86-.94-1.11v-.56h4.42v-1.81h-4.42v-5.03c.72-.18,1.41-.37,2.06-.57.65-.2,1.26-.42,1.83-.66l-1.23-1.52c-.53.23-1.16.46-1.89.69s-1.51.44-2.32.64c-.82.2-1.66.39-2.53.56-.87.17-1.71.32-2.53.45.1.21.2.47.32.76.12.29.19.55.23.76.68-.1,1.37-.2,2.08-.32.7-.12,1.4-.25,2.11-.41v4.65h-5.03v1.81h4.74c-.29.86-.64,1.74-1.04,2.63-.4.9-.82,1.76-1.27,2.59-.45.83-.92,1.61-1.4,2.34-.49.73-.96,1.36-1.43,1.89.18.21.36.49.56.83s.34.64.44.89c.8-.94,1.58-2.12,2.35-3.54.77-1.42,1.47-2.91,2.09-4.45v13.37h1.87v-13.89c.27.39.55.8.83,1.24.28.44.56.87.82,1.29.26.42.51.81.73,1.18.22.37.4.67.54.91h0ZM146.89,116.81l-1.26,1.14c.45.29.9.61,1.36.97.46.35.9.71,1.33,1.07.43.36.82.72,1.17,1.07s.64.68.88.99l1.32-1.26c-.23-.31-.54-.64-.91-.99-.37-.35-.77-.7-1.2-1.05-.43-.35-.87-.69-1.33-1.02-.46-.33-.91-.63-1.36-.91h0ZM145.69,124.38l-1.2,1.11c.47.29.96.62,1.46.98.51.36.99.73,1.46,1.11.47.38.9.76,1.3,1.13.4.37.74.72,1.01,1.05l1.29-1.29c-.27-.31-.61-.65-1.02-1.01-.41-.36-.85-.73-1.33-1.1-.48-.37-.97-.73-1.49-1.07-.52-.34-1.01-.65-1.48-.92Z"/>
  <path class="cls-1" d="M243.12,46.9h10.78S223.1,9.94,180.24,1.22c0,0-53.9-12.83-50.56,44.91h14.63s-3.59-33.62,17.45-41.32c0,0,30.54-15.4,81.36,42.09Z"/>
  <path class="cls-5" d="M179.83,116.71h-10.78s30.8,36.96,73.66,45.68c0,0,53.9,12.83,50.56-44.91h-14.63s3.59,33.62-17.45,41.32c0,0-30.54,15.4-81.36-42.09Z"/>
</svg>